<svg xmlns="http://www.w3.org/2000/svg" viewBox="0 0 137.7 31.5"><polygon points="29 6.4 29 1.3 17 1.3 11.9 1.3 0 1.3 0 6.4 11.9 6.4 11.9 25.2 0 25.2 0 30.3 11.9 30.3 17 30.3 29 30.3 29 25.2 17.1 25.2 17.1 6.4 29 6.4"/><polygon points="101.2 6.3 101.2 1.3 93.5 1.3 72 1.3 72 6.3 72 25.2 72 30.3 93.7 30.3 101.2 30.3 101.2 25.2 77.3 25.2 77.3 18.3 96 18.3 96 13.2 77.3 13.2 77.3 6.3 101.2 6.3"/><path d="M50.8,1.3H36.6v29H50.5c9-.1,15.2-6.4,15.2-14.5S59.6,1.5,50.8,1.3Zm-.3,24H41.8V6.3h8.8A9.11,9.11,0,0,1,60,15.8c0,5.4-3.7,9.4-9.5,9.5Z"/><path d="M121.8,0a15.75,15.75,0,1,0,15.9,15.7A15.75,15.75,0,0,0,121.8,0Zm0,26.1a10.3,10.3,0,1,1,10.4-10.3A10.29,10.29,0,0,1,121.8,26.1Z"/></svg>