<?xml version="1.0" encoding="utf-8"?>
<!-- Generator: Adobe Illustrator 23.1.1, SVG Export Plug-In . SVG Version: 6.00 Build 0)  -->
<svg version="1.1" id="Layer_1" xmlns="http://www.w3.org/2000/svg" xmlns:xlink="http://www.w3.org/1999/xlink" x="0px" y="0px"
	 viewBox="0 0 110 25" style="enable-background:new 0 0 110 25;" xml:space="preserve">
<path d="M19.9,4.6c-3.9,0-6.4,2.6-6.4,6.2c0,3.8,2.5,6.3,6.6,6.3c1.8,0,3.9-0.6,5.1-1.9l-1.9-1.8c-0.7,0.7-2.1,1.1-3.2,1.1
	c-2.1,0-3.4-1.1-3.5-2.5H26C26.5,7,23.9,4.6,19.9,4.6z M16.7,9.5c0.5-1.5,1.8-2.3,3.4-2.3c1.7,0,2.9,0.8,3.1,2.3H16.7z M31.9,14.3
	c-0.9,0-1.5-0.5-1.5-1.7V7.5h3.3V5h-3.3V1.7l-3,0.3v10.7c0,3,1.7,4.4,4.3,4.3c0.9,0,1.6-0.2,2.5-0.5L33.3,14
	C32.9,14.2,32.4,14.3,31.9,14.3z M54.3,4.6c-1.2,0-2.5,0.2-3.4,1.7L50.7,5h-2.8v11.9h3v-6.2c0-2.2,1.5-3,3-3c1,0,1.4,0.2,2,0.6
	l1.3-2.5C56.6,5,55.5,4.7,54.3,4.6z M63,4.7c-3.8,0-6.2,2.8-6.2,6.2s2.3,6.2,6.2,6.2s6.2-2.7,6.2-6.2C69.3,7.5,66.8,4.7,63,4.7z
	 M63.1,14.4c-2.1,0-3.2-1.7-3.2-3.5s1.2-3.5,3.2-3.5c2,0,3.2,1.8,3.2,3.5C66.3,12.7,65.2,14.4,63.1,14.4z M79.4,11
	c0,1.8-1.2,3.4-3.1,3.4s-2.9-1.4-2.9-3.2V5h-3v6.2c0,3.7,2.1,5.8,4.9,5.8c1.7,0,2.8-0.6,4.1-1.8l0.2,1.6h2.6V5h-2.9L79.4,11z
	 M90.7,4.7c-1.5,0-2.7,0.6-3.9,1.8l-0.2-1.6H84v11.9h2.9v-6.1c0-1.8,1.2-3.4,3.1-3.4s2.9,1.4,2.9,3.2v6.2h3v-6.2
	C95.8,6.9,93.6,4.7,90.7,4.7z M107,0v6.6c-0.7-1.2-2.7-1.9-3.9-1.9c-3.5,0-6.1,2.1-6.1,6.2c0,3.9,2.6,6.2,6.1,6.2
	c1.5,0,2.9-0.5,3.8-1.9l0.2,1.6h2.8V0H107z M103.3,14.3c-1.9,0-3.4-1.4-3.4-3.5s1.5-3.4,3.4-3.4c1.8,0,3.5,1.4,3.5,3.4
	C106.8,13,105.2,14.3,103.3,14.3z M44.3,5.1c-1.4-0.8-4.2-0.8-5.8-0.5c-1.9,0.5-3.1,2-3.2,3.8L38.1,9c0.3-1.3,0.6-1.8,1.9-2
	c0.8-0.2,2.1-0.1,2.8,0.6c0.4,0.4,0.4,0.5,0.4,1.2c0,0.3-0.6,0.4-1,0.5c-1.3,0.3-3.4,0.5-4.7,0.8c-2.5,0.7-2.9,3.7-1.6,5.3
	s4.6,2,6.4,0.8c0.3-0.2,0.5-0.4,0.9-0.6v1.1h3.1v-3c0-1.8,0.1-3.6,0-5.4C46.2,6.9,45.5,5.8,44.3,5.1z M42,14.1
	c-0.4,0.2-0.8,0.3-1.2,0.5c-0.5,0.1-1.2,0.2-1.7,0.1c-0.4-0.1-0.8-0.3-1-0.6c-0.2-0.2-0.2-0.4-0.2-0.7c0-0.2,0.1-0.4,0.2-0.6
	s0.4-0.4,0.6-0.5c0.8-0.3,1.6-0.5,2.5-0.5l1.4-0.2H43c0.1,0,0.1,0,0.1,0.1c0,0.2,0,0.4-0.1,0.6c0,0.2-0.1,0.4-0.2,0.6
	C42.7,13.3,42.4,13.7,42,14.1z M6.2,17.1c-3.9,0-6.2-2.7-6.2-6.2s2.4-6.2,6.2-6.2h7.4c0,0-0.3,1.9-2.1,2.7H6.2
	c-2.1,0-3.3,1.8-3.3,3.5c0,1.8,1.1,3.5,3.2,3.5s3.2-1.7,3.2-3.5c0-1-0.4-2-1.1-2.6h3.5c0.4,0.8,0.5,1.7,0.5,2.6c0,2-0.8,3.7-2.1,4.8
	c1.7,1,2.1,2.4,2.1,3.8c0,3.4-2.6,5.5-6.1,5.5c-3.4,0-5.9-1.9-6.2-4.8l3-0.3c0.2,1.4,1.5,2.4,3.2,2.4c1.8,0,3.1-0.9,3.1-2.7
	C9.4,17.8,7.8,17.1,6.2,17.1z"/>
</svg>
