<svg width="144" height="28" viewBox="0 0 144 28" fill="none" xmlns="http://www.w3.org/2000/svg">
<g clip-path="url(#clip0)">
<path d="M95.7618 24.1839C97.6705 24.2255 99.5175 23.4965 100.898 22.157L103.446 24.9431C101.762 26.6993 99.4349 28 95.8073 28C89.5922 28 85.581 23.8142 85.581 18.1495C85.556 16.8799 85.7778 15.6177 86.2336 14.4352C86.6894 13.2528 87.3704 12.1732 88.2375 11.2583C89.1046 10.3433 90.1408 9.61102 91.2869 9.10323C92.433 8.59544 93.6664 8.32213 94.9166 8.29895H95.2612C101.431 8.29895 104.928 13.0657 104.623 19.6812H90.0213C90.5414 22.4277 92.4397 24.1773 95.7618 24.1773V24.1839ZM100.209 16.5055C99.8185 13.9438 98.3102 12.0556 95.2872 12.0556C94.0173 11.9803 92.7667 12.3981 91.7889 13.2244C90.811 14.0507 90.1791 15.2236 90.0213 16.5055H100.209Z" fill="black"/>
<path d="M0 23.9792L11.2274 12.399H0.266546V8.76114H16.4284V12.4716L5.2009 24.0519H16.5779V27.6831H0V23.9792Z" fill="black"/>
<path d="M29.1836 24.1839C31.0923 24.2255 32.9393 23.4965 34.3195 22.157L36.868 24.9431C35.1842 26.6993 32.8568 28 29.2292 28C23.0141 28 19.0029 23.8142 19.0029 18.1495C18.9779 16.8809 19.1992 15.6199 19.6542 14.4382C20.1092 13.2566 20.789 12.1776 21.6548 11.2629C22.5205 10.3481 23.5552 9.61553 24.6998 9.10697C25.8444 8.59841 27.0764 8.32385 28.3255 8.29895H28.6701C34.8396 8.29895 38.3372 13.0657 38.0317 19.6812H23.4432C23.9632 22.4277 25.8616 24.1773 29.1836 24.1773V24.1839ZM33.6304 16.5055C33.2404 13.9438 31.7321 12.0556 28.7091 12.0556C27.4392 11.9803 26.1886 12.3981 25.2107 13.2244C24.2329 14.0507 23.601 15.2236 23.4432 16.5055H33.6304Z" fill="black"/>
<path d="M62.2617 18.1693C62.2617 12.1151 66.7149 8.332 71.6168 8.332C72.7929 8.31656 73.9582 8.56269 75.0307 9.05312C76.1032 9.54355 77.0571 10.2664 77.8254 11.1709V0H81.791V27.6303H77.8254V24.9894C77.0716 25.9319 76.1186 26.69 75.0371 27.2078C73.9557 27.7255 72.7733 27.9895 71.5778 27.9802C70.3441 27.9707 69.1244 27.7145 67.9882 27.2263C66.852 26.738 65.8217 26.0273 64.956 25.1347C64.0903 24.242 63.4062 23.1849 62.9428 22.0238C62.4794 20.8627 62.2457 19.6202 62.2552 18.3674C62.2552 18.2881 62.2552 18.2155 62.2552 18.1429L62.2617 18.1693ZM78.0464 18.1033C78.0215 16.5008 77.374 14.9733 76.245 13.8535C75.116 12.7338 73.597 12.1125 72.019 12.1252C70.4409 12.1378 68.9317 12.7833 67.8202 13.921C66.7088 15.0587 66.0851 16.5964 66.0851 18.199C66.0851 19.8017 66.7088 21.3393 67.8202 22.477C68.9317 23.6147 70.4409 24.2602 72.019 24.2729C73.597 24.2855 75.116 23.6642 76.245 22.5445C77.374 21.4247 78.0215 19.8972 78.0464 18.2947V18.1033Z" fill="black"/>
<path d="M107.19 23.6161L110.779 21.7213C111.255 22.5802 111.953 23.2911 112.797 23.7773C113.641 24.2636 114.6 24.5069 115.57 24.481C117.813 24.481 118.977 23.3124 118.977 21.9854C118.977 20.4735 116.805 20.1302 114.426 19.6416C111.247 18.9814 107.925 17.8986 107.925 14.0033C107.925 11.0125 110.727 8.25277 115.147 8.28579C118.626 8.28579 121.207 9.68545 122.669 11.9566L119.386 13.8118C118.926 13.1195 118.299 12.558 117.565 12.1802C116.832 11.8024 116.015 11.6209 115.193 11.6529C113.061 11.6529 111.975 12.7159 111.975 13.9241C111.975 15.2841 113.698 15.6671 116.389 16.2679C119.458 16.9281 122.936 17.9712 122.936 21.9062C122.936 24.547 120.693 28.0396 115.375 28C111.474 28 108.75 26.4089 107.184 23.6095" fill="black"/>
<path d="M133.715 19.2257L130.568 22.705V27.6303H126.603V0H130.568V18.0901L138.987 8.70172H143.818L136.517 16.8026L144 27.6303H139.514L133.715 19.2257Z" fill="black"/>
<path d="M50.2728 8.32536C45.5595 8.32536 41.6133 11.4284 41.6133 16.5781V27.6302H45.657V17.0667C45.657 13.9637 47.4123 12.1084 50.4093 12.1084C53.4063 12.1084 54.9016 13.9637 54.9016 17.0667V27.6302H58.9258V16.5715C58.9258 11.4218 54.9796 8.31876 50.2663 8.31876" fill="black"/>
</g>
<defs>
<clipPath id="clip0">
<rect width="144" height="28" fill="white"/>
</clipPath>
</defs>
</svg>
