<svg width="418" height="78" viewBox="0 0 418 78" fill="none" xmlns="http://www.w3.org/2000/svg">
<path fill-rule="evenodd" clip-rule="evenodd" d="M245.413 0.332031C246.687 0.332031 247.729 1.37399 247.729 2.64749V56.8292L226.89 77.6683H172.708C171.435 77.6683 170.393 76.6264 170.393 75.3529V2.64749C170.393 1.37399 171.435 0.332031 172.708 0.332031H245.413ZM213.572 27.1916C212.877 26.9601 211.257 26.7285 210.099 26.7285L198.174 26.8443C197.711 26.8443 197.248 27.3074 197.248 27.7705V50.925C197.248 51.3881 197.711 51.8512 198.174 51.8512H203.963C204.426 51.8512 204.889 51.3881 204.889 50.925V45.0206H208.131L212.183 51.3881C212.414 51.7355 212.646 51.8512 212.993 51.8512H220.634C220.982 51.8512 221.213 51.3881 220.982 51.1566C219.708 49.3042 216.235 43.8629 216.119 43.6314C216.262 43.5238 216.395 43.4163 216.523 43.3122C216.808 43.0801 217.073 42.865 217.393 42.7052C221.213 40.1582 221.676 34.9484 219.476 31.3594C218.087 29.1597 216.119 27.7705 213.572 27.1916ZM210.099 38.7689H204.889V32.9803H209.867C210.446 32.9803 211.025 33.096 211.604 33.4433C212.53 34.0222 212.993 34.6011 212.993 35.8746C212.993 37.0323 212.53 37.9585 211.488 38.4216C211.025 38.6531 210.562 38.7689 210.099 38.7689Z" fill="black"/>
<path fill-rule="evenodd" clip-rule="evenodd" d="M76.4973 77.6684C77.3077 77.6684 78.0023 76.9737 78.0023 76.1633L77.8865 1.83708C77.8865 1.02667 77.1919 0.332031 76.3815 0.332031H2.17106C1.36065 0.332031 0.666016 1.02667 0.666016 1.83708V76.1633C0.666016 76.9737 1.36065 77.6684 2.17106 77.6684H76.4973ZM54.5005 50.8093V27.5389C54.5005 27.0758 54.0374 26.7285 53.6901 26.7285H48.2487C48.0172 26.7285 47.6699 26.8443 47.5541 27.0758L39.2184 38.4216L30.9986 27.0758C30.767 26.8443 30.5355 26.7285 30.3039 26.7285H24.9784C24.5153 26.7285 24.168 27.0758 24.168 27.5389V50.925C24.168 51.3881 24.5153 51.7355 24.9784 51.7355H30.9986C31.4617 51.7355 31.809 51.3881 31.809 50.925V38.7689C32.0123 39.1077 34.4371 42.5012 36.5059 45.3963C37.9713 47.447 39.258 49.2477 39.45 49.5358C41.1802 46.9816 42.9691 44.5448 44.7331 42.1417C45.4478 41.1681 46.1584 40.2001 46.8595 39.232V50.8093C46.8595 51.2724 47.2068 51.6197 47.6699 51.6197H53.6901C54.1532 51.6197 54.5005 51.2724 54.5005 50.8093Z" fill="black"/>
<path fill-rule="evenodd" clip-rule="evenodd" d="M161.361 77.6683C162.171 77.6683 162.866 76.9737 162.866 76.1633H162.75V1.83708C162.75 1.02667 162.055 0.332031 161.245 0.332031H87.0343C86.2239 0.332031 85.5293 1.02667 85.5293 1.83708V76.1633C85.5293 76.9737 86.2239 77.6683 87.0343 77.6683H161.361ZM137.396 27.6547C137.396 27.0758 136.933 26.7285 136.47 26.7285V26.8443H130.449C129.87 26.8443 129.523 27.3074 129.523 27.7705V40.1582C129.523 40.8528 129.523 41.5474 129.292 42.2421C128.828 44.2102 127.555 45.368 125.587 45.7153C124.082 46.0626 122.693 45.9468 121.303 45.2522C120.261 44.6733 119.682 43.8629 119.219 42.8209C118.756 41.6632 118.64 40.2739 118.64 39.0004V27.7705C118.64 27.1916 118.177 26.8443 117.714 26.8443H112.041C111.578 26.8443 111.115 27.3074 111.115 27.7705V39.1162V39.1163C111.115 40.274 111.115 41.5475 111.347 42.7052C111.694 45.0206 112.62 46.9888 114.125 48.6096C116.441 51.0408 119.451 52.0828 122.693 52.3143C124.198 52.4301 125.818 52.3143 127.323 52.0828C129.87 51.6197 132.186 50.6935 134.038 48.8411C136.354 46.6415 137.28 43.7471 137.396 40.737V27.6547Z" fill="black"/>
<path fill-rule="evenodd" clip-rule="evenodd" d="M330.963 77.6683C331.774 77.6683 332.469 76.9737 332.469 76.1633V1.83708C332.469 1.02667 331.774 0.332031 330.963 0.332031H256.753C255.943 0.332031 255.248 1.02667 255.248 1.83708V76.1633C255.248 76.9737 255.943 77.6683 256.753 77.6683H330.963ZM308.62 50.925L297.505 26.7285H290.559L279.329 50.925C279.098 51.2724 279.329 51.7355 279.792 51.7355H286.507C286.97 51.7355 287.317 51.5039 287.549 51.0408L288.591 48.4938H299.358L300.4 51.0408C300.631 51.5039 300.979 51.7355 301.442 51.7355H308.157C308.504 51.7355 308.735 51.2724 308.62 50.925ZM293.801 35.5273L296.464 42.4736H291.138L293.801 35.5273Z" fill="black"/>
<path fill-rule="evenodd" clip-rule="evenodd" d="M415.827 77.6683C416.637 77.6683 417.332 76.9737 417.332 76.1633V1.83708C417.332 1.02667 416.637 0.332031 415.827 0.332031H341.616C340.806 0.332031 340.111 1.02667 340.111 1.83708V76.1633C340.111 76.9737 340.806 77.6683 341.616 77.6683H415.827ZM376.698 45.2522V27.6547C376.698 27.0758 376.35 26.7285 375.656 26.7285H369.983C369.52 26.7285 369.057 27.1916 369.057 27.6547V50.8093C369.057 51.2724 369.52 51.7355 369.983 51.7355H387.233C387.696 51.7355 388.159 51.2724 388.159 50.8093V46.1784C388.159 45.7153 387.696 45.2522 387.233 45.2522H376.698Z" fill="black"/>
<path d="M226.887 77.6684H207.438L227.466 57.5239H247.032L226.887 77.6684Z" fill="black"/>
<path d="M247.726 56.8291H229.202C227.929 56.8291 226.887 57.8711 226.887 59.1446V77.6682L247.726 56.8291Z" fill="black"/>
</svg>
